<svg width="270" height="222" viewBox="0 0 270 222" fill="none" xmlns="http://www.w3.org/2000/svg">
<path d="M146.292 106.536C138.546 106.536 130.987 106.536 123.127 106.536C123.127 107.759 123.127 109.002 123.127 110.239C123.123 115.79 120.434 119.578 115.162 121.33C106.365 124.252 98.6799 128.876 92.3447 135.775C86.8304 141.792 83.0441 148.727 81.0608 156.626C78.7482 165.836 78.1023 175.107 81.0022 184.323C83.758 193.086 89.3154 199.884 96.2516 205.645C97.6442 206.799 99.0894 207.89 100.562 208.928C103.437 210.957 104.469 213.499 103.564 216.542C102.759 219.25 100.05 220.934 96.9941 220.997C89.4733 220.997 25.7875 220.806 6.14378 220.796C4.52527 220.795 3.92768 220.649 3 220.5C1.92768 220.149 2 220 2 220C1.61973 219.072 1.09166 219.136 0.757091 218.615C0.378548 218.026 0.114684 217.984 0 215.643C0.925231 214.524 3.22495 212.861 3.60436 210.828C4.90641 210.443 1.88323 211.757 2.67998 211.327C2.69809 211.316 2.89555 211.126 3.32842 210.95C3.49829 210.881 3.60436 210.637 3.80527 210.51C5.39187 209.518 8.18137 207.812 8.35124 207.638C9.3032 206.66 10.1439 205.73 10.9036 204.847C12.7265 202.73 33.9085 160.297 52.9762 120.124C77.0046 69.4998 105.428 12.5866 111.207 4.87603C112.32 3.38533 114.422 1.84251 115.681 1.40121C120.801 -0.392666 124.235 0.0477683 125.245 0.0477683C131.7 0.0477683 136.584 0.0477662 142.649 0.0755648C146.65 0.133768 149.976 0.0486431 153.763 0.0486431C155.308 0.0486431 157.902 1.03115 159.13 1.84947C162.073 3.80492 164.063 7.13988 165.73 10.6008C168.518 16.3898 244.999 177.207 259.094 203.214C260.168 205.196 261.108 206.13 261.397 206.418C265.66 209.942 264.576 208.984 267.218 210.147C269.332 211.081 270.046 213.06 269.998 215.619C269.71 220.049 268.588 220.697 266.69 220.997C263.318 220.997 259.806 220.994 256.768 220.997C242.699 221.022 186.337 220.858 172.278 220.997C170.789 221.012 169.11 221.211 168 220.5C167.234 220.01 166.798 219.478 166.305 218.757C165.168 217.107 164.946 214.259 165.852 212.222C166.445 210.897 167.71 209.751 168.913 208.843C177.99 201.982 184.747 193.393 188.089 182.377C193.437 164.773 187.643 142.36 171.637 130.571C166.523 126.805 161.181 123.563 155.126 121.788C149.612 120.166 145.802 115.848 146.264 109.469C146.346 108.56 146.292 107.648 146.292 106.536ZM134.778 70.0627C130.692 70.0627 126.605 70.0523 122.521 70.0671C118.894 70.081 116.289 72.6914 116.278 76.307C116.27 81.1509 116.439 86.0026 116.222 90.8352C116.072 94.1484 118.385 97.5259 122.599 97.5755C130.588 97.6623 138.582 97.7023 146.575 97.5937C150.877 97.5364 153.133 94.9893 153.133 90.6953C153.133 85.9114 153.15 81.1257 153.131 76.3452C153.12 72.8521 150.351 70.0853 146.856 70.0723C142.832 70.0514 138.805 70.0627 134.778 70.0627Z" fill="#9444B6"/>
<path d="M242.267 215.249C242.262 220.793 244.551 219.953 247.365 219.953C250.179 219.953 252.462 218.003 252.462 215.249C252.462 212.494 250.179 210.263 247.365 210.263C244.549 210.258 242.267 212.494 242.267 215.249Z" fill="#9444B6"/>
<path d="M7.29645e-06 215.249C-0.00430413 220.793 1.90216 220.547 5.5 220C8.3145 220 10.1948 218.003 10.1948 215.249C10.1948 212.494 8.31364 210.278 5.5 210.278C2.68551 210.273 7.29645e-06 212.494 7.29645e-06 215.249Z" fill="#9444B6"/>
</svg>
